<svg xmlns="http://www.w3.org/2000/svg" xmlns:xlink="http://www.w3.org/1999/xlink" width="509" zoomAndPan="magnify" viewBox="0 0 381.75 293.999989" height="392" preserveAspectRatio="xMidYMid meet" version="1.0"><defs><clipPath id="ab056f4c8d"><path d="M 1 0.0976562 L 380 0.0976562 L 380 293 L 1 293 Z M 1 0.0976562 " clip-rule="nonzero"/></clipPath></defs><g clip-path="url(#ab056f4c8d)"><path fill="#fd7c45" d="M 331.984375 0.0507812 L 205.324219 0.0507812 C 203.773438 0.0507812 202.222656 0.125 200.675781 0.277344 C 199.128906 0.425781 197.59375 0.652344 196.070312 0.957031 C 194.546875 1.257812 193.042969 1.632812 191.554688 2.082031 C 190.070312 2.53125 188.605469 3.054688 187.171875 3.644531 C 185.734375 4.238281 184.332031 4.902344 182.960938 5.632812 C 181.589844 6.363281 180.257812 7.160156 178.96875 8.023438 C 177.675781 8.882812 176.429688 9.808594 175.226562 10.792969 C 174.023438 11.777344 172.875 12.816406 171.773438 13.914062 C 170.675781 15.011719 169.632812 16.160156 168.644531 17.359375 C 167.660156 18.558594 166.734375 19.804688 165.867188 21.097656 C 165.003906 22.386719 164.207031 23.714844 163.472656 25.085938 C 162.738281 26.457031 162.074219 27.855469 161.476562 29.292969 C 160.882812 30.726562 160.359375 32.1875 159.90625 33.671875 C 159.453125 35.160156 159.074219 36.664062 158.769531 38.1875 C 158.464844 39.710938 158.238281 41.246094 158.082031 42.789062 C 157.929688 44.335938 157.851562 45.886719 157.851562 47.441406 L 157.851562 73.644531 L 49.058594 73.644531 C 47.503906 73.644531 45.953125 73.722656 44.40625 73.878906 C 42.859375 74.03125 41.324219 74.261719 39.800781 74.5625 C 38.277344 74.867188 36.773438 75.246094 35.285156 75.699219 C 33.800781 76.152344 32.339844 76.675781 30.902344 77.269531 C 29.46875 77.867188 28.066406 78.53125 26.695312 79.265625 C 25.324219 79.996094 23.996094 80.796875 22.703125 81.660156 C 21.410156 82.523438 20.164062 83.449219 18.964844 84.4375 C 17.765625 85.421875 16.613281 86.464844 15.515625 87.566406 C 14.417969 88.664062 13.375 89.816406 12.390625 91.015625 C 11.40625 92.21875 10.480469 93.464844 9.617188 94.757812 C 8.753906 96.050781 7.957031 97.382812 7.226562 98.75 C 6.492188 100.121094 5.832031 101.527344 5.234375 102.960938 C 4.640625 104.398438 4.117188 105.859375 3.667969 107.347656 C 3.21875 108.832031 2.839844 110.339844 2.539062 111.863281 C 2.234375 113.386719 2.007812 114.921875 1.855469 116.46875 C 1.703125 118.015625 1.625 119.566406 1.625 121.121094 L 1.625 193.09375 C 1.628906 194.511719 1.691406 195.921875 1.820312 197.332031 C 1.949219 198.742188 2.140625 200.144531 2.394531 201.535156 C 2.648438 202.929688 2.964844 204.304688 3.339844 205.671875 C 3.714844 207.035156 4.152344 208.378906 4.652344 209.707031 C 5.148438 211.03125 5.703125 212.332031 6.316406 213.605469 C 6.929688 214.882812 7.597656 216.128906 8.324219 217.34375 C 9.046875 218.558594 9.828125 219.738281 10.65625 220.886719 C 11.488281 222.03125 12.367188 223.140625 13.296875 224.207031 C 14.226562 225.273438 15.199219 226.296875 16.222656 227.277344 C 17.242188 228.257812 18.304688 229.191406 19.410156 230.074219 C 20.515625 230.960938 21.65625 231.796875 22.835938 232.578125 C 24.015625 233.363281 25.226562 234.089844 26.46875 234.765625 C 27.714844 235.441406 28.984375 236.058594 30.285156 236.617188 C 31.585938 237.179688 32.90625 237.679688 34.25 238.125 C 35.597656 238.566406 36.957031 238.949219 38.335938 239.269531 C 39.714844 239.589844 41.105469 239.847656 42.507812 240.046875 L 42.507812 286.253906 C 42.507812 286.839844 42.589844 287.410156 42.746094 287.972656 C 42.902344 288.535156 43.132812 289.070312 43.429688 289.570312 C 43.730469 290.074219 44.089844 290.527344 44.511719 290.929688 C 44.929688 291.335938 45.398438 291.679688 45.910156 291.960938 C 46.421875 292.242188 46.960938 292.449219 47.53125 292.585938 C 48.097656 292.722656 48.675781 292.78125 49.257812 292.761719 C 49.84375 292.746094 50.414062 292.652344 50.972656 292.480469 C 51.53125 292.308594 52.058594 292.066406 52.550781 291.757812 L 133.742188 240.484375 L 176.019531 240.484375 C 177.566406 240.476562 179.109375 240.394531 180.648438 240.234375 C 182.1875 240.074219 183.71875 239.84375 185.234375 239.535156 C 186.75 239.226562 188.246094 238.84375 189.726562 238.390625 C 191.207031 237.9375 192.660156 237.410156 194.085938 236.8125 C 195.515625 236.214844 196.910156 235.550781 198.273438 234.816406 C 199.632812 234.082031 200.957031 233.285156 202.242188 232.421875 C 203.527344 231.558594 204.765625 230.632812 205.957031 229.648438 C 207.152344 228.664062 208.292969 227.625 209.386719 226.527344 C 210.476562 225.429688 211.511719 224.28125 212.492188 223.085938 C 213.472656 221.886719 214.390625 220.644531 215.246094 219.355469 C 216.105469 218.066406 216.898438 216.738281 217.625 215.375 C 218.351562 214.007812 219.011719 212.609375 219.601562 211.179688 C 220.191406 209.75 220.710938 208.292969 221.160156 206.8125 C 221.609375 205.332031 221.984375 203.832031 222.285156 202.3125 C 222.585938 200.796875 222.8125 199.265625 222.960938 197.726562 C 223.113281 196.1875 223.1875 194.644531 223.1875 193.09375 L 223.1875 166.890625 L 247.515625 166.890625 L 328.402344 218.078125 C 329.472656 218.738281 330.636719 219.074219 331.894531 219.082031 C 333.023438 219.082031 334.085938 218.816406 335.082031 218.296875 C 335.59375 218.007812 336.058594 217.660156 336.476562 217.246094 C 336.894531 216.835938 337.253906 216.375 337.546875 215.871094 C 337.84375 215.363281 338.066406 214.828125 338.21875 214.261719 C 338.371094 213.695312 338.449219 213.117188 338.445312 212.53125 L 338.445312 166.367188 C 339.847656 166.167969 341.238281 165.910156 342.617188 165.589844 C 343.996094 165.269531 345.355469 164.886719 346.703125 164.445312 C 348.046875 164 349.367188 163.5 350.667969 162.9375 C 351.964844 162.378906 353.238281 161.761719 354.484375 161.085938 C 355.726562 160.410156 356.9375 159.683594 358.117188 158.898438 C 359.296875 158.117188 360.4375 157.28125 361.542969 156.398438 C 362.648438 155.511719 363.710938 154.578125 364.730469 153.597656 C 365.75 152.617188 366.726562 151.59375 367.65625 150.527344 C 368.585938 149.460938 369.464844 148.351562 370.296875 147.207031 C 371.125 146.058594 371.902344 144.878906 372.628906 143.664062 C 373.355469 142.449219 374.023438 141.203125 374.636719 139.925781 C 375.25 138.652344 375.804688 137.351562 376.300781 136.027344 C 376.800781 134.699219 377.234375 133.355469 377.613281 131.992188 C 377.988281 130.628906 378.304688 129.25 378.558594 127.855469 C 378.8125 126.464844 379.003906 125.0625 379.132812 123.652344 C 379.257812 122.242188 379.324219 120.832031 379.328125 119.414062 L 379.328125 47.441406 C 379.324219 45.890625 379.246094 44.34375 379.089844 42.800781 C 378.9375 41.257812 378.707031 39.726562 378.402344 38.207031 C 378.097656 36.6875 377.71875 35.183594 377.269531 33.703125 C 376.816406 32.21875 376.292969 30.761719 375.699219 29.328125 C 375.105469 27.898438 374.441406 26.496094 373.710938 25.128906 C 372.980469 23.765625 372.183594 22.4375 371.324219 21.148438 C 370.460938 19.859375 369.539062 18.613281 368.554688 17.414062 C 367.570312 16.21875 366.53125 15.070312 365.4375 13.972656 C 364.339844 12.875 363.195312 11.835938 361.996094 10.851562 C 360.800781 9.867188 359.554688 8.941406 358.269531 8.082031 C 356.980469 7.21875 355.652344 6.421875 354.285156 5.6875 C 352.921875 4.957031 351.519531 4.289062 350.089844 3.695312 C 348.660156 3.101562 347.203125 2.574219 345.71875 2.121094 C 344.238281 1.671875 342.734375 1.289062 341.214844 0.984375 C 339.695312 0.679688 338.164062 0.449219 336.621094 0.292969 C 335.078125 0.136719 333.53125 0.0585938 331.984375 0.0507812 Z M 210.085938 193.09375 C 210.085938 194.21875 210.027344 195.335938 209.917969 196.453125 C 209.804688 197.570312 209.640625 198.679688 209.421875 199.78125 C 209.199219 200.882812 208.925781 201.96875 208.601562 203.042969 C 208.273438 204.117188 207.894531 205.171875 207.464844 206.207031 C 207.035156 207.246094 206.554688 208.257812 206.023438 209.25 C 205.496094 210.238281 204.917969 211.199219 204.292969 212.132812 C 203.671875 213.066406 203.003906 213.964844 202.289062 214.832031 C 201.578125 215.699219 200.824219 216.53125 200.03125 217.324219 C 199.238281 218.121094 198.40625 218.871094 197.539062 219.585938 C 196.671875 220.296875 195.773438 220.964844 194.839844 221.589844 C 193.90625 222.210938 192.945312 222.789062 191.953125 223.320312 C 190.964844 223.847656 189.953125 224.328125 188.914062 224.757812 C 187.878906 225.1875 186.824219 225.566406 185.75 225.894531 C 184.675781 226.21875 183.589844 226.492188 182.488281 226.714844 C 181.386719 226.933594 180.277344 227.101562 179.160156 227.210938 C 178.042969 227.320312 176.925781 227.378906 175.800781 227.378906 L 131.644531 227.378906 C 130.359375 227.371094 129.179688 227.71875 128.109375 228.429688 L 55.652344 274.332031 L 55.652344 233.757812 C 55.652344 233.328125 55.609375 232.898438 55.527344 232.476562 C 55.441406 232.054688 55.316406 231.648438 55.152344 231.25 C 54.988281 230.851562 54.785156 230.472656 54.546875 230.117188 C 54.308594 229.757812 54.039062 229.429688 53.734375 229.125 C 53.429688 228.820312 53.097656 228.546875 52.742188 228.308594 C 52.382812 228.070312 52.003906 227.867188 51.609375 227.703125 C 51.210938 227.539062 50.800781 227.414062 50.378906 227.332031 C 49.957031 227.246094 49.53125 227.207031 49.101562 227.207031 C 47.976562 227.203125 46.859375 227.148438 45.738281 227.035156 C 44.621094 226.925781 43.511719 226.757812 42.414062 226.539062 C 41.3125 226.320312 40.222656 226.046875 39.148438 225.71875 C 38.074219 225.394531 37.019531 225.015625 35.980469 224.585938 C 34.945312 224.15625 33.929688 223.675781 32.9375 223.144531 C 31.949219 222.617188 30.988281 222.039062 30.054688 221.414062 C 29.117188 220.792969 28.21875 220.125 27.351562 219.410156 C 26.480469 218.699219 25.648438 217.945312 24.855469 217.152344 C 24.0625 216.359375 23.308594 215.53125 22.59375 214.660156 C 21.878906 213.792969 21.210938 212.894531 20.585938 211.960938 C 19.960938 211.027344 19.382812 210.066406 18.851562 209.078125 C 18.320312 208.085938 17.839844 207.074219 17.410156 206.039062 C 16.976562 205 16.597656 203.945312 16.269531 202.871094 C 15.941406 201.796875 15.667969 200.710938 15.445312 199.609375 C 15.226562 198.507812 15.058594 197.398438 14.945312 196.28125 C 14.832031 195.164062 14.773438 194.042969 14.773438 192.921875 L 14.773438 121.121094 C 14.773438 119.996094 14.832031 118.875 14.945312 117.757812 C 15.058594 116.640625 15.226562 115.53125 15.445312 114.429688 C 15.667969 113.332031 15.941406 112.242188 16.269531 111.167969 C 16.597656 110.09375 16.976562 109.039062 17.410156 108.003906 C 17.839844 106.964844 18.320312 105.953125 18.851562 104.960938 C 19.382812 103.972656 19.960938 103.011719 20.585938 102.078125 C 21.210938 101.144531 21.878906 100.246094 22.59375 99.378906 C 23.308594 98.511719 24.0625 97.679688 24.855469 96.886719 C 25.648438 96.09375 26.480469 95.339844 27.351562 94.628906 C 28.21875 93.914062 29.117188 93.246094 30.054688 92.625 C 30.988281 92 31.949219 91.421875 32.9375 90.894531 C 33.929688 90.363281 34.945312 89.886719 35.980469 89.453125 C 37.019531 89.023438 38.074219 88.648438 39.148438 88.320312 C 40.222656 87.992188 41.3125 87.71875 42.414062 87.5 C 43.511719 87.28125 44.621094 87.113281 45.738281 87.003906 C 46.859375 86.890625 47.976562 86.835938 49.101562 86.835938 L 175.757812 86.835938 C 176.878906 86.835938 178 86.890625 179.117188 87.003906 C 180.234375 87.113281 181.34375 87.28125 182.445312 87.5 C 183.542969 87.71875 184.632812 87.992188 185.707031 88.320312 C 186.777344 88.648438 187.835938 89.027344 188.871094 89.457031 C 189.90625 89.886719 190.921875 90.367188 191.910156 90.894531 C 192.902344 91.425781 193.863281 92 194.796875 92.625 C 195.726562 93.25 196.628906 93.917969 197.496094 94.628906 C 198.363281 95.34375 199.195312 96.09375 199.988281 96.890625 C 200.78125 97.683594 201.535156 98.511719 202.246094 99.382812 C 202.960938 100.25 203.628906 101.148438 204.25 102.082031 C 204.875 103.015625 205.453125 103.976562 205.980469 104.964844 C 206.511719 105.957031 206.992188 106.96875 207.421875 108.003906 C 207.851562 109.042969 208.230469 110.097656 208.554688 111.171875 C 208.882812 112.246094 209.15625 113.332031 209.375 114.433594 C 209.597656 115.535156 209.761719 116.644531 209.875 117.761719 C 209.984375 118.875 210.042969 119.996094 210.042969 121.121094 Z M 366.3125 119.414062 C 366.308594 120.539062 366.25 121.660156 366.136719 122.777344 C 366.023438 123.894531 365.859375 125.003906 365.636719 126.105469 C 365.414062 127.203125 365.140625 128.292969 364.8125 129.367188 C 364.484375 130.441406 364.105469 131.496094 363.675781 132.53125 C 363.242188 133.570312 362.761719 134.582031 362.230469 135.574219 C 361.699219 136.5625 361.121094 137.523438 360.496094 138.457031 C 359.871094 139.390625 359.203125 140.289062 358.488281 141.15625 C 357.777344 142.023438 357.023438 142.855469 356.226562 143.648438 C 355.433594 144.441406 354.601562 145.195312 353.734375 145.90625 C 352.867188 146.621094 351.964844 147.289062 351.03125 147.910156 C 350.097656 148.535156 349.136719 149.109375 348.144531 149.640625 C 347.152344 150.171875 346.140625 150.648438 345.101562 151.078125 C 344.066406 151.511719 343.007812 151.886719 341.933594 152.214844 C 340.859375 152.542969 339.773438 152.816406 338.671875 153.035156 C 337.570312 153.253906 336.460938 153.421875 335.34375 153.53125 C 334.226562 153.644531 333.105469 153.699219 331.984375 153.699219 C 331.550781 153.699219 331.125 153.742188 330.703125 153.828125 C 330.28125 153.910156 329.875 154.035156 329.476562 154.199219 C 329.078125 154.363281 328.699219 154.566406 328.34375 154.804688 C 327.984375 155.042969 327.65625 155.316406 327.351562 155.621094 C 327.046875 155.921875 326.773438 156.253906 326.535156 156.613281 C 326.296875 156.96875 326.09375 157.347656 325.929688 157.746094 C 325.765625 158.140625 325.640625 158.550781 325.558594 158.972656 C 325.472656 159.394531 325.429688 159.820312 325.429688 160.25 L 325.429688 200.652344 L 252.929688 154.75 C 251.859375 154.039062 250.679688 153.691406 249.394531 153.699219 L 223.1875 153.699219 L 223.1875 121.121094 C 223.1875 119.566406 223.109375 118.019531 222.957031 116.476562 C 222.804688 114.933594 222.574219 113.398438 222.269531 111.878906 C 221.96875 110.355469 221.589844 108.851562 221.136719 107.367188 C 220.6875 105.882812 220.164062 104.425781 219.570312 102.992188 C 218.976562 101.558594 218.3125 100.15625 217.582031 98.789062 C 216.847656 97.421875 216.050781 96.09375 215.1875 94.800781 C 214.328125 93.511719 213.402344 92.269531 212.417969 91.070312 C 211.433594 89.871094 210.394531 88.722656 209.296875 87.625 C 208.199219 86.527344 207.050781 85.484375 205.851562 84.5 C 204.652344 83.515625 203.40625 82.59375 202.117188 81.730469 C 200.828125 80.871094 199.5 80.070312 198.132812 79.339844 C 196.761719 78.609375 195.363281 77.945312 193.929688 77.351562 C 192.496094 76.757812 191.035156 76.234375 189.550781 75.78125 C 188.066406 75.332031 186.566406 74.953125 185.042969 74.648438 C 183.523438 74.347656 181.988281 74.117188 180.445312 73.964844 C 178.902344 73.8125 177.351562 73.734375 175.800781 73.730469 L 170.953125 73.730469 L 170.953125 47.527344 C 170.957031 46.40625 171.011719 45.285156 171.121094 44.167969 C 171.234375 43.050781 171.398438 41.941406 171.621094 40.839844 C 171.839844 39.742188 172.113281 38.652344 172.441406 37.578125 C 172.765625 36.503906 173.144531 35.449219 173.574219 34.414062 C 174.003906 33.375 174.484375 32.363281 175.015625 31.375 C 175.542969 30.382812 176.121094 29.421875 176.746094 28.488281 C 177.367188 27.558594 178.035156 26.65625 178.75 25.789062 C 179.460938 24.921875 180.214844 24.089844 181.007812 23.296875 C 181.800781 22.503906 182.632812 21.75 183.5 21.039062 C 184.367188 20.324219 185.269531 19.65625 186.203125 19.035156 C 187.132812 18.410156 188.09375 17.832031 189.085938 17.304688 C 190.074219 16.773438 191.089844 16.292969 192.125 15.863281 C 193.160156 15.433594 194.21875 15.054688 195.289062 14.726562 C 196.363281 14.402344 197.453125 14.128906 198.554688 13.910156 C 199.652344 13.6875 200.761719 13.523438 201.878906 13.410156 C 202.996094 13.300781 204.117188 13.242188 205.238281 13.242188 L 331.894531 13.242188 C 333.019531 13.242188 334.136719 13.300781 335.257812 13.410156 C 336.375 13.523438 337.484375 13.6875 338.585938 13.90625 C 339.683594 14.128906 340.773438 14.402344 341.847656 14.726562 C 342.921875 15.054688 343.976562 15.433594 345.015625 15.863281 C 346.054688 16.292969 347.066406 16.773438 348.058594 17.300781 C 349.046875 17.832031 350.007812 18.410156 350.945312 19.03125 C 351.878906 19.65625 352.777344 20.324219 353.648438 21.035156 C 354.515625 21.746094 355.347656 22.5 356.140625 23.292969 C 356.9375 24.085938 357.691406 24.917969 358.402344 25.785156 C 359.117188 26.652344 359.785156 27.554688 360.410156 28.488281 C 361.035156 29.417969 361.613281 30.382812 362.144531 31.371094 C 362.675781 32.359375 363.15625 33.375 363.585938 34.410156 C 364.019531 35.445312 364.398438 36.503906 364.726562 37.578125 C 365.054688 38.652344 365.328125 39.738281 365.550781 40.839844 C 365.769531 41.941406 365.9375 43.050781 366.050781 44.167969 C 366.164062 45.285156 366.222656 46.402344 366.222656 47.527344 Z M 366.3125 119.414062 " fill-opacity="1" fill-rule="nonzero"/></g><path fill="#fd7c45" d="M 118.28125 113.605469 C 118.007812 113.066406 117.667969 112.570312 117.257812 112.121094 C 116.847656 111.675781 116.382812 111.292969 115.867188 110.972656 C 115.351562 110.65625 114.800781 110.414062 114.214844 110.25 C 113.632812 110.082031 113.035156 110 112.429688 110 C 111.824219 110 111.226562 110.082031 110.644531 110.25 C 110.058594 110.414062 109.507812 110.65625 108.992188 110.972656 C 108.476562 111.292969 108.011719 111.675781 107.601562 112.121094 C 107.191406 112.570312 106.851562 113.066406 106.578125 113.605469 L 66.179688 193.183594 C 65.957031 193.566406 65.777344 193.972656 65.640625 194.390625 C 65.5 194.8125 65.40625 195.246094 65.355469 195.683594 C 65.304688 196.125 65.296875 196.566406 65.335938 197.007812 C 65.375 197.453125 65.457031 197.886719 65.585938 198.308594 C 65.710938 198.734375 65.878906 199.144531 66.089844 199.535156 C 66.300781 199.925781 66.546875 200.292969 66.832031 200.632812 C 67.113281 200.972656 67.429688 201.28125 67.777344 201.558594 C 68.125 201.835938 68.496094 202.074219 68.890625 202.273438 C 69.285156 202.476562 69.695312 202.636719 70.125 202.753906 C 70.550781 202.871094 70.988281 202.945312 71.429688 202.976562 C 71.871094 203.003906 72.3125 202.988281 72.753906 202.929688 C 73.191406 202.867188 73.621094 202.765625 74.039062 202.617188 C 74.457031 202.46875 74.859375 202.28125 75.238281 202.054688 C 75.617188 201.824219 75.972656 201.558594 76.296875 201.257812 C 76.625 200.960938 76.917969 200.628906 77.175781 200.269531 C 77.4375 199.910156 77.65625 199.527344 77.839844 199.121094 L 91.769531 171.695312 L 133.085938 171.695312 L 146.84375 199.121094 C 147.027344 199.527344 147.246094 199.910156 147.507812 200.269531 C 147.765625 200.628906 148.058594 200.960938 148.386719 201.257812 C 148.710938 201.558594 149.066406 201.824219 149.445312 202.054688 C 149.828125 202.28125 150.226562 202.46875 150.644531 202.617188 C 151.0625 202.765625 151.492188 202.867188 151.929688 202.929688 C 152.371094 202.988281 152.8125 203.003906 153.253906 202.976562 C 153.695312 202.945312 154.132812 202.871094 154.558594 202.753906 C 154.988281 202.636719 155.398438 202.476562 155.792969 202.277344 C 156.191406 202.074219 156.5625 201.835938 156.90625 201.558594 C 157.253906 201.28125 157.570312 200.972656 157.855469 200.632812 C 158.136719 200.292969 158.382812 199.925781 158.59375 199.535156 C 158.804688 199.144531 158.972656 198.734375 159.097656 198.308594 C 159.226562 197.886719 159.308594 197.453125 159.347656 197.007812 C 159.386719 196.566406 159.378906 196.125 159.328125 195.6875 C 159.277344 195.246094 159.183594 194.8125 159.042969 194.390625 C 158.90625 193.972656 158.726562 193.566406 158.507812 193.183594 Z M 98.410156 158.59375 L 112.429688 131.035156 L 126.40625 158.59375 Z M 98.410156 158.59375 " fill-opacity="1" fill-rule="nonzero"/><path fill="#fd7c45" d="M 306.914062 114.21875 L 281.363281 97.011719 C 286.667969 88.621094 291.035156 79.769531 294.464844 70.457031 L 303.199219 70.457031 C 303.632812 70.457031 304.058594 70.414062 304.480469 70.332031 C 304.902344 70.246094 305.3125 70.121094 305.707031 69.957031 C 306.105469 69.792969 306.484375 69.589844 306.839844 69.351562 C 307.199219 69.113281 307.527344 68.839844 307.832031 68.539062 C 308.136719 68.234375 308.410156 67.902344 308.648438 67.542969 C 308.886719 67.1875 309.089844 66.808594 309.253906 66.414062 C 309.417969 66.015625 309.542969 65.605469 309.625 65.183594 C 309.710938 64.761719 309.753906 64.335938 309.753906 63.90625 C 309.753906 63.476562 309.710938 63.050781 309.625 62.628906 C 309.542969 62.207031 309.417969 61.796875 309.253906 61.398438 C 309.089844 61 308.886719 60.625 308.648438 60.265625 C 308.410156 59.90625 308.136719 59.578125 307.832031 59.273438 C 307.527344 58.96875 307.199219 58.695312 306.839844 58.457031 C 306.484375 58.21875 306.105469 58.015625 305.707031 57.851562 C 305.3125 57.6875 304.902344 57.5625 304.480469 57.480469 C 304.058594 57.394531 303.632812 57.355469 303.199219 57.355469 L 276.734375 57.355469 L 276.734375 43.726562 C 276.734375 43.296875 276.691406 42.871094 276.609375 42.449219 C 276.523438 42.027344 276.398438 41.617188 276.234375 41.21875 C 276.070312 40.824219 275.867188 40.445312 275.628906 40.085938 C 275.390625 39.730469 275.121094 39.398438 274.816406 39.09375 C 274.511719 38.789062 274.179688 38.519531 273.824219 38.28125 C 273.464844 38.042969 273.085938 37.839844 272.691406 37.675781 C 272.292969 37.511719 271.882812 37.386719 271.460938 37.300781 C 271.039062 37.21875 270.613281 37.175781 270.183594 37.175781 C 269.753906 37.175781 269.328125 37.21875 268.90625 37.300781 C 268.484375 37.386719 268.074219 37.511719 267.675781 37.675781 C 267.277344 37.839844 266.902344 38.042969 266.542969 38.28125 C 266.183594 38.519531 265.855469 38.789062 265.550781 39.09375 C 265.246094 39.398438 264.976562 39.730469 264.734375 40.085938 C 264.496094 40.445312 264.296875 40.824219 264.128906 41.21875 C 263.964844 41.617188 263.839844 42.027344 263.757812 42.449219 C 263.671875 42.871094 263.632812 43.296875 263.632812 43.726562 L 263.632812 57.355469 L 234.195312 57.355469 C 233.765625 57.355469 233.339844 57.394531 232.917969 57.480469 C 232.496094 57.5625 232.085938 57.6875 231.6875 57.851562 C 231.289062 58.015625 230.914062 58.21875 230.554688 58.457031 C 230.199219 58.695312 229.867188 58.96875 229.5625 59.273438 C 229.257812 59.578125 228.988281 59.90625 228.746094 60.265625 C 228.507812 60.625 228.308594 61 228.140625 61.398438 C 227.976562 61.796875 227.851562 62.207031 227.769531 62.628906 C 227.6875 63.050781 227.644531 63.476562 227.644531 63.90625 C 227.644531 64.335938 227.6875 64.761719 227.769531 65.183594 C 227.851562 65.605469 227.976562 66.015625 228.140625 66.414062 C 228.308594 66.808594 228.507812 67.1875 228.746094 67.542969 C 228.988281 67.902344 229.257812 68.234375 229.5625 68.539062 C 229.867188 68.839844 230.199219 69.113281 230.554688 69.351562 C 230.914062 69.589844 231.289062 69.792969 231.6875 69.957031 C 232.085938 70.121094 232.496094 70.246094 232.917969 70.332031 C 233.339844 70.414062 233.765625 70.457031 234.195312 70.457031 L 280.535156 70.457031 C 277.738281 77.136719 274.386719 83.527344 270.488281 89.628906 L 254.023438 78.535156 C 253.660156 78.292969 253.273438 78.089844 252.871094 77.925781 C 252.464844 77.757812 252.050781 77.636719 251.621094 77.550781 C 251.191406 77.46875 250.757812 77.425781 250.320312 77.429688 C 249.886719 77.429688 249.453125 77.476562 249.023438 77.5625 C 248.597656 77.648438 248.179688 77.777344 247.777344 77.945312 C 247.375 78.113281 246.992188 78.320312 246.628906 78.566406 C 246.265625 78.808594 245.933594 79.085938 245.625 79.398438 C 245.316406 79.707031 245.042969 80.046875 244.800781 80.410156 C 244.558594 80.773438 244.355469 81.160156 244.191406 81.5625 C 244.027344 81.96875 243.902344 82.382812 243.820312 82.8125 C 243.734375 83.242188 243.695312 83.675781 243.699219 84.113281 C 243.699219 84.550781 243.746094 84.980469 243.832031 85.410156 C 243.921875 85.839844 244.046875 86.253906 244.21875 86.65625 C 244.386719 87.058594 244.59375 87.441406 244.839844 87.804688 C 245.085938 88.164062 245.363281 88.5 245.671875 88.808594 C 245.984375 89.113281 246.320312 89.390625 246.6875 89.628906 L 262.933594 100.546875 C 257.839844 106.988281 252.207031 112.914062 246.03125 118.324219 C 245.707031 118.609375 245.417969 118.925781 245.15625 119.269531 C 244.898438 119.613281 244.675781 119.980469 244.488281 120.371094 C 244.300781 120.757812 244.152344 121.160156 244.042969 121.578125 C 243.933594 121.996094 243.867188 122.417969 243.84375 122.851562 C 243.816406 123.28125 243.835938 123.710938 243.894531 124.136719 C 243.953125 124.5625 244.054688 124.980469 244.195312 125.386719 C 244.335938 125.796875 244.515625 126.183594 244.734375 126.558594 C 244.953125 126.929688 245.207031 127.277344 245.492188 127.597656 C 245.777344 127.921875 246.09375 128.210938 246.4375 128.472656 C 246.78125 128.734375 247.148438 128.957031 247.535156 129.144531 C 247.921875 129.332031 248.324219 129.480469 248.742188 129.589844 C 249.160156 129.699219 249.585938 129.769531 250.015625 129.792969 C 250.445312 129.820312 250.875 129.800781 251.300781 129.742188 C 251.726562 129.683594 252.144531 129.585938 252.554688 129.445312 C 252.960938 129.304688 253.351562 129.125 253.722656 128.90625 C 254.09375 128.6875 254.441406 128.4375 254.765625 128.152344 C 261.789062 121.996094 268.179688 115.238281 273.9375 107.886719 L 299.707031 125.355469 C 300.804688 126.09375 302.011719 126.457031 303.332031 126.449219 C 304.03125 126.445312 304.714844 126.335938 305.378906 126.113281 C 306.042969 125.894531 306.65625 125.574219 307.214844 125.160156 C 307.777344 124.742188 308.261719 124.25 308.664062 123.675781 C 309.070312 123.105469 309.371094 122.484375 309.578125 121.816406 C 309.78125 121.148438 309.878906 120.464844 309.863281 119.765625 C 309.851562 119.066406 309.726562 118.386719 309.496094 117.726562 C 309.261719 117.066406 308.933594 116.457031 308.507812 115.902344 C 308.082031 115.347656 307.578125 114.875 307 114.480469 Z M 306.914062 114.21875 " fill-opacity="1" fill-rule="nonzero"/></svg>